<svg width="24" height="24" viewBox="0 0 24 24" fill="none" xmlns="http://www.w3.org/2000/svg">
<path fill-rule="evenodd" clip-rule="evenodd" d="M3.1416 3.00802C3.04394 3.00066 2.90841 3 2.65424 3H1C0.447715 3 0 2.55229 0 2C0 1.44772 0.447715 1 1 1H2.65424C2.66367 1 2.6731 1 2.68252 1C2.89719 0.999976 3.10972 0.99995 3.29187 1.01367C3.49456 1.02895 3.73005 1.06482 3.97366 1.17349C4.31651 1.32642 4.60939 1.57276 4.81881 1.88434C4.96761 2.10573 5.0433 2.33159 5.09308 2.52866C5.13781 2.70576 5.1742 2.91516 5.21095 3.12665C5.21257 3.13594 5.21418 3.14523 5.2158 3.15452L5.45407 4.52459L18.4681 4.90982C18.978 4.9249 19.4188 4.93793 19.7817 4.9779C20.1654 5.02015 20.5457 5.0996 20.9106 5.29398C21.4634 5.58852 21.9102 6.04874 22.1883 6.61008C22.3718 6.98053 22.4399 7.36306 22.4708 7.74778C22.5 8.11176 22.5 8.55266 22.5 9.06286V9.13661C22.5 9.61608 22.5 10.032 22.4732 10.3769C22.4447 10.7426 22.3819 11.1059 22.2143 11.4619C21.9593 12.0037 21.5479 12.4568 21.0332 12.7628C20.695 12.9639 20.3395 13.0614 19.9782 13.125C19.6375 13.185 19.2235 13.225 18.7463 13.2712L9.01239 14.2132C8.5232 14.2605 8.09935 14.3015 7.74572 14.3078C7.37105 14.3144 6.99541 14.2853 6.61828 14.1467C6.05271 13.939 5.5628 13.5657 5.21236 13.0756C4.97869 12.7487 4.85092 12.3943 4.75782 12.0313C4.66995 11.6887 4.59701 11.2692 4.51282 10.785L3.24537 3.4972C3.20182 3.24679 3.17795 3.11338 3.15397 3.01842C3.15312 3.01505 3.15229 3.01185 3.1515 3.00881C3.14837 3.00855 3.14507 3.00828 3.1416 3.00802Z" fill="#1E212C"/>
<path fill-rule="evenodd" clip-rule="evenodd" d="M5.5 18.5C5.5 16.8431 6.84315 15.5 8.5 15.5C10.1569 15.5 11.5 16.8431 11.5 18.5C11.5 20.1569 10.1569 21.5 8.5 21.5C6.84315 21.5 5.5 20.1569 5.5 18.5Z" fill="#1E212C"/>
<path fill-rule="evenodd" clip-rule="evenodd" d="M15 18.5C15 16.8431 16.3431 15.5 18 15.5C19.6569 15.5 21 16.8431 21 18.5C21 20.1569 19.6569 21.5 18 21.5C16.3431 21.5 15 20.1569 15 18.5Z" fill="#1E212C"/>
</svg>
